<svg width="232" height="51" viewBox="0 0 232 51" fill="none" xmlns="http://www.w3.org/2000/svg">
<g id="Group 32687">
<path id="path14" d="M14.1032 35.5895C19.1322 35.5895 22.7079 30.952 22.7079 25.0851C22.7079 19.2745 19.1322 14.6369 14.1032 14.6369C8.96328 14.6369 5.38756 19.2745 5.38756 25.0851C5.38756 30.952 8.96328 35.5895 14.1032 35.5895ZM5.33131 35.254V50.2832H0.75V11.1727H5.33131V14.9725C7.56621 12.2343 10.8627 10.6142 14.7176 10.6142C22.0934 10.6142 27.2892 16.5925 27.2892 25.0851C27.2892 33.6339 22.0934 39.6123 14.7176 39.6123C10.8627 39.6123 7.56621 37.9909 5.33131 35.254Z" fill="#100F0D"/>
<path id="path16" d="M31.7637 11.1819H36.345V15.2609C38.6914 12.1319 42.4912 10.2325 46.1784 10.2325V15.4849C40.5918 15.4849 36.345 18.8928 36.345 24.2564V39.1182H31.7637V11.1819Z" fill="#100F0D"/>
<path id="path18" d="M69.2549 22.857C69.2549 17.7175 65.2321 14.6438 60.7061 14.6438C55.6218 14.6438 52.2701 18.1642 51.4875 22.857H69.2549ZM46.7384 25.0919C46.7384 16.5994 52.7168 10.621 60.7061 10.621C67.1868 10.621 73.7799 14.3645 73.7799 24.7564C73.7799 26.042 73.7247 26.7683 73.7247 26.7683H51.4313C52.0461 31.7967 55.3987 35.5964 60.7061 35.5964C64.3936 35.5964 66.9075 34.199 68.5289 31.4611L72.8859 32.9697C70.596 37.3842 66.4604 39.6191 60.7061 39.6191C52.1573 39.6191 46.7384 33.6408 46.7384 25.0919Z" fill="#100F0D"/>
<path id="path20" d="M91.4389 35.6449C96.5795 35.6449 100.155 31.0076 100.155 25.197C100.155 19.3311 96.5795 14.6936 91.4389 14.6936C86.4106 14.6936 82.8349 19.3311 82.8349 25.197C82.8349 31.0076 86.4106 35.6449 91.4389 35.6449ZM78.2535 25.197C78.2535 16.6492 83.4497 10.6708 90.8251 10.6708C94.6801 10.6708 97.9769 12.2909 100.211 15.0291V-0.000411987H104.793V39.1094H100.211V35.3097C97.9769 38.0475 94.6801 39.668 90.8251 39.668C83.4497 39.668 78.2535 33.6896 78.2535 25.197Z" fill="#100F0D"/>
<path id="path22" d="M118.261 35.7577C122.674 35.7577 125.467 33.1873 125.467 29.052V25.7566C120.328 27.1526 112.729 26.3701 112.729 31.5672C112.729 34.081 114.852 35.7577 118.261 35.7577ZM108.148 31.6221C108.148 18.8841 125.467 25.8115 125.467 19.7216C125.467 16.5929 123.568 14.7488 119.657 14.7488C116.305 14.7488 113.902 16.0344 113.902 18.2693H109.321C109.321 13.6317 113.288 10.727 119.657 10.727C126.529 10.727 130.049 14.6373 130.049 20.8397V39.1094H125.467V35.7015C124.183 38.1591 121.39 39.668 117.311 39.668C111.668 39.668 108.148 36.4837 108.148 31.6221Z" fill="#100F0D"/>
<path id="path24" d="M134.747 25.0919C134.747 16.5994 140.725 10.621 148.714 10.621C154.525 10.621 158.66 13.1914 161.007 17.7175L156.705 19.4491C155.084 16.3763 152.57 14.6438 148.714 14.6438C142.848 14.6438 139.328 19.2813 139.328 25.0919C139.328 30.9588 142.848 35.5964 148.714 35.5964C152.905 35.5964 155.643 33.7519 157.152 30.2325L161.397 31.9078C159.274 36.9925 154.917 39.6191 148.714 39.6191C140.167 39.6191 134.747 33.6408 134.747 25.0919Z" fill="#100F0D"/>
<path id="path26" d="M167.434 28.67V15.0378H163.076V11.1266H167.434V2.63404H172.015V11.1819H179.445V15.0378H172.015V28.67C172.015 34.0335 175.033 35.0954 178.05 35.0954H179.39V39.1182H177.267C170.395 39.1182 167.434 35.6536 167.434 28.67Z" fill="#100F0D"/>
<path id="path28" d="M184.53 11.1819H189.111V39.1182H184.53V11.1819ZM186.818 0.00834656C188.496 0.00834656 189.67 1.18171 189.67 2.85707C189.67 4.58966 188.496 5.76271 186.818 5.76271C185.089 5.76271 183.915 4.58966 183.915 2.85707C183.915 1.18171 185.089 0.00834656 186.818 0.00834656Z" fill="#100F0D"/>
<path id="path30" d="M193.026 11.1819H197.496L205.429 32.8605L213.362 11.1819H217.833L207.721 39.1182H203.14L193.026 11.1819Z" fill="#100F0D"/>
<path id="path32" d="M222.627 11.8365H221.092V11.0669H225.091V11.8365H223.56V16.0166H222.627V11.8365Z" fill="#100F0D"/>
<path id="path34" d="M230.281 14.0733C230.281 13.203 230.294 12.2608 230.313 11.7149H230.284C230.057 12.6535 229.458 14.4654 228.951 16.0166H228.151C227.768 14.6927 227.147 12.6415 226.926 11.7022H226.9C226.939 12.2803 226.958 13.3262 226.958 14.1748V16.0166H226.106V11.0669H227.488C227.934 12.4432 228.454 14.1891 228.61 14.8894H228.62C228.737 14.2993 229.374 12.4133 229.845 11.0669H231.178V16.0166H230.281V14.0733Z" fill="#100F0D"/>
<path id="path36" d="M14.1032 35.5895C19.1322 35.5895 22.7079 30.952 22.7079 25.0851C22.7079 19.2745 19.1322 14.6369 14.1032 14.6369C8.96328 14.6369 5.38756 19.2745 5.38756 25.0851C5.38756 30.952 8.96328 35.5895 14.1032 35.5895ZM5.33131 35.254V50.2832H0.75V11.1727H5.33131V14.9725C7.56621 12.2343 10.8627 10.6142 14.7176 10.6142C22.0934 10.6142 27.2892 16.5925 27.2892 25.0851C27.2892 33.6339 22.0934 39.6123 14.7176 39.6123C10.8627 39.6123 7.56621 37.9909 5.33131 35.254Z" fill="#100F0D"/>
<path id="path38" d="M31.7637 11.1819H36.345V15.2609C38.6914 12.1319 42.4912 10.2325 46.1784 10.2325V15.4849C40.5918 15.4849 36.345 18.8928 36.345 24.2564V39.1182H31.7637V11.1819Z" fill="#100F0D"/>
<path id="path40" d="M69.2549 22.857C69.2549 17.7175 65.2321 14.6438 60.7061 14.6438C55.6218 14.6438 52.2701 18.1642 51.4875 22.857H69.2549ZM46.7384 25.0919C46.7384 16.5994 52.7168 10.621 60.7061 10.621C67.1868 10.621 73.7799 14.3645 73.7799 24.7564C73.7799 26.042 73.7247 26.7683 73.7247 26.7683H51.4313C52.0461 31.7967 55.3987 35.5964 60.7061 35.5964C64.3936 35.5964 66.9075 34.199 68.5289 31.4611L72.8859 32.9697C70.596 37.3842 66.4604 39.6191 60.7061 39.6191C52.1573 39.6191 46.7384 33.6408 46.7384 25.0919Z" fill="#100F0D"/>
<path id="path42" d="M91.4389 35.6449C96.5795 35.6449 100.155 31.0076 100.155 25.197C100.155 19.3311 96.5795 14.6936 91.4389 14.6936C86.4106 14.6936 82.8349 19.3311 82.8349 25.197C82.8349 31.0076 86.4106 35.6449 91.4389 35.6449ZM78.2535 25.197C78.2535 16.6492 83.4497 10.6708 90.8251 10.6708C94.6801 10.6708 97.9769 12.2909 100.211 15.0291V-0.000411987H104.793V39.1094H100.211V35.3097C97.9769 38.0475 94.6801 39.668 90.8251 39.668C83.4497 39.668 78.2535 33.6896 78.2535 25.197Z" fill="#100F0D"/>
<path id="path44" d="M118.261 35.7577C122.674 35.7577 125.467 33.1873 125.467 29.052V25.7566C120.328 27.1526 112.729 26.3701 112.729 31.5672C112.729 34.081 114.852 35.7577 118.261 35.7577ZM108.148 31.6221C108.148 18.8841 125.467 25.8115 125.467 19.7216C125.467 16.5929 123.568 14.7488 119.657 14.7488C116.305 14.7488 113.902 16.0344 113.902 18.2693H109.321C109.321 13.6317 113.288 10.727 119.657 10.727C126.529 10.727 130.049 14.6373 130.049 20.8397V39.1094H125.467V35.7015C124.183 38.1591 121.39 39.668 117.311 39.668C111.668 39.668 108.148 36.4837 108.148 31.6221Z" fill="#100F0D"/>
<path id="path46" d="M134.747 25.0919C134.747 16.5994 140.725 10.621 148.714 10.621C154.525 10.621 158.66 13.1914 161.007 17.7175L156.705 19.4491C155.084 16.3763 152.57 14.6438 148.714 14.6438C142.848 14.6438 139.328 19.2813 139.328 25.0919C139.328 30.9588 142.848 35.5964 148.714 35.5964C152.905 35.5964 155.643 33.7519 157.152 30.2325L161.397 31.9078C159.274 36.9925 154.917 39.6191 148.714 39.6191C140.167 39.6191 134.747 33.6408 134.747 25.0919Z" fill="#100F0D"/>
<path id="path48" d="M167.434 28.67V15.0378H163.076V11.1266H167.434V2.63404H172.015V11.1819H179.445V15.0378H172.015V28.67C172.015 34.0335 175.033 35.0954 178.05 35.0954H179.39V39.1182H177.267C170.395 39.1182 167.434 35.6536 167.434 28.67Z" fill="#100F0D"/>
<path id="path50" d="M184.53 11.1819H189.111V39.1182H184.53V11.1819ZM186.818 0.00834656C188.496 0.00834656 189.67 1.18171 189.67 2.85707C189.67 4.58966 188.496 5.76271 186.818 5.76271C185.089 5.76271 183.915 4.58966 183.915 2.85707C183.915 1.18171 185.089 0.00834656 186.818 0.00834656Z" fill="#100F0D"/>
<path id="path52" d="M193.026 11.1819H197.496L205.429 32.8605L213.362 11.1819H217.833L207.721 39.1182H203.14L193.026 11.1819Z" fill="#100F0D"/>
<path id="path54" d="M222.627 11.8365H221.092V11.0669H225.091V11.8365H223.56V16.0166H222.627V11.8365Z" fill="#100F0D"/>
<path id="path56" d="M230.281 14.0733C230.281 13.203 230.294 12.2608 230.313 11.7149H230.284C230.057 12.6535 229.458 14.4654 228.951 16.0166H228.151C227.768 14.6927 227.147 12.6415 226.926 11.7022H226.9C226.939 12.2803 226.958 13.3262 226.958 14.1748V16.0166H226.106V11.0669H227.488C227.934 12.4432 228.454 14.1891 228.61 14.8894H228.62C228.737 14.2993 229.374 12.4133 229.845 11.0669H231.178V16.0166H230.281V14.0733Z" fill="#100F0D"/>
</g>
</svg>
