<svg width="24" height="24" viewBox="0 0 24 24" fill="none" xmlns="http://www.w3.org/2000/svg">
<g id="Radio">
<g id="Color">
<path d="M12 6.99707C9.23858 6.99707 7 9.23565 7 11.9971C7 14.7585 9.23858 16.9971 12 16.9971C14.7614 16.9971 17 14.7585 17 11.9971C17 9.23565 14.7614 6.99707 12 6.99707Z" fill="#590094"/>
<path fill-rule="evenodd" clip-rule="evenodd" d="M12 1.99707C17.5228 1.99707 22 6.47422 22 11.9971C22 17.5199 17.5228 21.9971 12 21.9971C6.47715 21.9971 2 17.5199 2 11.9971C2 6.47422 6.47715 1.99707 12 1.99707ZM12 3.99707C7.58172 3.99707 4 7.57879 4 11.9971C4 16.4153 7.58172 19.9971 12 19.9971C16.4183 19.9971 20 16.4153 20 11.9971C20 7.57879 16.4183 3.99707 12 3.99707Z" fill="#590094"/>
</g>
</g>
</svg>
