<svg width="40" height="41" viewBox="0 0 40 41" fill="none" xmlns="http://www.w3.org/2000/svg">
<g id="Frame">
<path id="Vector" d="M5 20.4971C5 23.4638 5.87973 26.3639 7.52796 28.8306C9.17618 31.2974 11.5189 33.2199 14.2597 34.3553C17.0006 35.4906 20.0166 35.7876 22.9264 35.2089C25.8361 34.6301 28.5088 33.2015 30.6066 31.1037C32.7044 29.0059 34.133 26.3331 34.7118 23.4234C35.2906 20.5137 34.9935 17.4977 33.8582 14.7568C32.7229 12.0159 30.8003 9.67325 28.3336 8.02503C25.8668 6.37681 22.9667 5.49707 20 5.49707C15.8066 5.51285 11.7816 7.14911 8.76667 10.0637L5 13.8304" stroke="black" stroke-width="2.2" stroke-linecap="round" stroke-linejoin="round"/>
<path id="Vector_2" d="M5 5.49707V13.8304H13.3333" stroke="black" stroke-width="2.2" stroke-linecap="round" stroke-linejoin="round"/>
<path id="Vector_3" d="M20 12.1641V20.4974L26.6667 23.8307" stroke="black" stroke-width="2.2" stroke-linecap="round" stroke-linejoin="round"/>
</g>
</svg>
