<svg width="40" height="41" viewBox="0 0 40 41" fill="none" xmlns="http://www.w3.org/2000/svg">
<g id="Frame">
<path id="Vector" d="M20.3667 3.83008H19.6333C18.7493 3.83008 17.9014 4.18127 17.2763 4.80639C16.6512 5.43151 16.3 6.27936 16.3 7.16341V7.46341C16.2994 8.04795 16.1451 8.62206 15.8526 9.12814C15.56 9.63422 15.1396 10.0545 14.6333 10.3467L13.9167 10.7634C13.4099 11.056 12.8351 11.21 12.25 11.21C11.6649 11.21 11.0901 11.056 10.5833 10.7634L10.3333 10.6301C9.56844 10.1888 8.65973 10.0692 7.80667 10.2973C6.95361 10.5254 6.22592 11.0826 5.78334 11.8467L5.41667 12.4801C4.97544 13.245 4.85574 14.1537 5.08385 15.0067C5.31196 15.8598 5.86923 16.5875 6.63334 17.0301L6.88334 17.1967C7.38713 17.4876 7.80604 17.9052 8.09842 18.4081C8.39081 18.911 8.54649 19.4817 8.55 20.0634V20.9134C8.55234 21.5008 8.39942 22.0783 8.10674 22.5876C7.81406 23.0969 7.39202 23.5197 6.88334 23.8134L6.63334 23.9634C5.86923 24.406 5.31196 25.1337 5.08385 25.9867C4.85574 26.8398 4.97544 27.7485 5.41667 28.5134L5.78334 29.1467C6.22592 29.9109 6.95361 30.4681 7.80667 30.6962C8.65973 30.9243 9.56844 30.8046 10.3333 30.3634L10.5833 30.2301C11.0901 29.9375 11.6649 29.7835 12.25 29.7835C12.8351 29.7835 13.4099 29.9375 13.9167 30.2301L14.6333 30.6467C15.1396 30.939 15.56 31.3593 15.8526 31.8653C16.1451 32.3714 16.2994 32.9455 16.3 33.5301V33.8301C16.3 34.7141 16.6512 35.562 17.2763 36.1871C17.9014 36.8122 18.7493 37.1634 19.6333 37.1634H20.3667C21.2507 37.1634 22.0986 36.8122 22.7237 36.1871C23.3488 35.562 23.7 34.7141 23.7 33.8301V33.5301C23.7006 32.9455 23.8549 32.3714 24.1474 31.8653C24.44 31.3593 24.8604 30.939 25.3667 30.6467L26.0833 30.2301C26.5901 29.9375 27.1649 29.7835 27.75 29.7835C28.3351 29.7835 28.9099 29.9375 29.4167 30.2301L29.6667 30.3634C30.4316 30.8046 31.3403 30.9243 32.1933 30.6962C33.0464 30.4681 33.7741 29.9109 34.2167 29.1467L34.5833 28.4967C35.0246 27.7319 35.1443 26.8231 34.9162 25.9701C34.688 25.117 34.1308 24.3893 33.3667 23.9467L33.1167 23.8134C32.608 23.5197 32.1859 23.0969 31.8933 22.5876C31.6006 22.0783 31.4477 21.5008 31.45 20.9134V20.0801C31.4477 19.4927 31.6006 18.9152 31.8933 18.4059C32.1859 17.8966 32.608 17.4738 33.1167 17.1801L33.3667 17.0301C34.1308 16.5875 34.688 15.8598 34.9162 15.0067C35.1443 14.1537 35.0246 13.245 34.5833 12.4801L34.2167 11.8467C33.7741 11.0826 33.0464 10.5254 32.1933 10.2973C31.3403 10.0692 30.4316 10.1888 29.6667 10.6301L29.4167 10.7634C28.9099 11.056 28.3351 11.21 27.75 11.21C27.1649 11.21 26.5901 11.056 26.0833 10.7634L25.3667 10.3467C24.8604 10.0545 24.44 9.63422 24.1474 9.12814C23.8549 8.62206 23.7006 8.04795 23.7 7.46341V7.16341C23.7 6.27936 23.3488 5.43151 22.7237 4.80639C22.0986 4.18127 21.2507 3.83008 20.3667 3.83008Z" stroke="black" stroke-width="2" stroke-linecap="round" stroke-linejoin="round"/>
<path id="Vector_2" d="M20 25.4971C22.7614 25.4971 25 23.2585 25 20.4971C25 17.7356 22.7614 15.4971 20 15.4971C17.2386 15.4971 15 17.7356 15 20.4971C15 23.2585 17.2386 25.4971 20 25.4971Z" stroke="black" stroke-width="2" stroke-linecap="round" stroke-linejoin="round"/>
</g>
</svg>
