<svg width="24" height="24" viewBox="0 0 24 24" fill="none" xmlns="http://www.w3.org/2000/svg">
<g id="24px / Outline / Trash can">
<path id="Icon" fill-rule="evenodd" clip-rule="evenodd" d="M10.6095 4C10.0372 4 9.56603 4.47115 9.56603 5.04348V5.73913H6.83709C6.81756 5.73587 6.79778 5.73428 6.77798 5.73438C6.76113 5.73474 6.74433 5.73633 6.72771 5.73913H6.08777C5.96233 5.73736 5.84565 5.80326 5.78241 5.91161C5.71918 6.01995 5.71918 6.15396 5.78241 6.26231C5.84565 6.37065 5.96233 6.43656 6.08777 6.43478H6.43559V18.9565C6.43559 19.5289 6.90674 20 7.47907 20H16.5225C17.0949 20 17.566 19.5289 17.566 18.9565V6.43478H17.9139C18.0393 6.43656 18.156 6.37065 18.2192 6.26231C18.2824 6.15396 18.2824 6.01995 18.2192 5.91161C18.156 5.80326 18.0393 5.73736 17.9139 5.73913H17.2766C17.2391 5.73292 17.2007 5.73292 17.1632 5.73913H14.4356V5.04348C14.4356 4.47115 13.9644 4 13.3921 4H10.6095ZM10.6095 4.69565H13.3921C13.585 4.69565 13.7399 4.85059 13.7399 5.04348V5.73913H10.2617V5.04348C10.2617 4.85059 10.4166 4.69565 10.6095 4.69565ZM7.13124 6.43478H9.85543C9.89299 6.44099 9.93132 6.44099 9.96888 6.43478H14.0293C14.0669 6.44099 14.1052 6.44099 14.1428 6.43478H16.8704V18.9565C16.8704 19.1494 16.7154 19.3043 16.5225 19.3043H7.47907C7.28618 19.3043 7.13124 19.1494 7.13124 18.9565V6.43478ZM9.90842 8.16916C9.71659 8.17216 9.5634 8.3299 9.56603 8.52174V17.2174C9.56425 17.3428 9.63016 17.4595 9.7385 17.5227C9.84685 17.586 9.98085 17.586 10.0892 17.5227C10.1975 17.4595 10.2635 17.3428 10.2617 17.2174V8.52174C10.263 8.42772 10.2261 8.33719 10.1596 8.27076C10.093 8.20434 10.0024 8.16769 9.90842 8.16916ZM11.9954 8.16916C11.8035 8.17216 11.6504 8.3299 11.653 8.52174V17.2174C11.6512 17.3428 11.7171 17.4595 11.8255 17.5227C11.9338 17.586 12.0678 17.586 12.1762 17.5227C12.2845 17.4595 12.3504 17.3428 12.3486 17.2174V8.52174C12.3499 8.42772 12.3131 8.33719 12.2465 8.27076C12.18 8.20434 12.0894 8.16769 11.9954 8.16916ZM14.0823 8.16916C13.8905 8.17216 13.7373 8.3299 13.7399 8.52174V17.2174C13.7382 17.3428 13.8041 17.4595 13.9124 17.5227C14.0208 17.586 14.1548 17.586 14.2631 17.5227C14.3715 17.4595 14.4374 17.3428 14.4356 17.2174V8.52174C14.4369 8.42772 14.4001 8.33719 14.3335 8.27076C14.267 8.20434 14.1763 8.16769 14.0823 8.16916Z" fill="#3D3D3D"/>
</g>
</svg>
