<svg width="40" height="41" viewBox="0 0 40 41" fill="none" xmlns="http://www.w3.org/2000/svg">
<g id="Frame">
<path id="Vector" d="M25 35.4971V22.1637C25 21.7217 24.8244 21.2978 24.5118 20.9852C24.1993 20.6727 23.7754 20.4971 23.3333 20.4971H16.6667C16.2246 20.4971 15.8007 20.6727 15.4882 20.9852C15.1756 21.2978 15 21.7217 15 22.1637V35.4971" stroke="black" stroke-width="2.2" stroke-linecap="round" stroke-linejoin="round"/>
<path id="Vector_2" d="M5 17.1635C4.99988 16.6786 5.10556 16.1996 5.30965 15.7597C5.51374 15.3199 5.81133 14.9298 6.18167 14.6169L17.8483 4.61852C18.45 4.11004 19.2123 3.83105 20 3.83105C20.7877 3.83105 21.55 4.11004 22.1517 4.61852L33.8183 14.6169C34.1887 14.9298 34.4863 15.3199 34.6904 15.7597C34.8944 16.1996 35.0001 16.6786 35 17.1635V32.1635C35 33.0476 34.6488 33.8954 34.0237 34.5205C33.3986 35.1457 32.5507 35.4969 31.6667 35.4969H8.33333C7.44928 35.4969 6.60143 35.1457 5.97631 34.5205C5.35119 33.8954 5 33.0476 5 32.1635V17.1635Z" stroke="black" stroke-width="2.2" stroke-linecap="round" stroke-linejoin="round"/>
</g>
</svg>
