<svg width="40" height="41" viewBox="0 0 40 41" fill="none" xmlns="http://www.w3.org/2000/svg">
<g id="006-bubble-chat" clip-path="url(#clip0_41_9857)">
<path id="Vector" d="M37.5041 29.3831C41.3694 23.9599 40.7785 16.5298 35.499 11.6899C33.0867 9.47856 30.0115 8.10191 26.6895 7.71746C26.6688 7.69199 26.6477 7.66676 26.6245 7.64262C23.7345 4.64066 19.5827 2.91895 15.2334 2.91895C6.95695 2.91895 0 9.08559 0 16.9814C0 19.7498 0.859922 22.4036 2.49344 24.6956L0.211484 31.8601C0.0680469 32.3104 0.209141 32.8027 0.569219 33.1087C0.929922 33.4153 1.43875 33.4742 1.85914 33.2604L8.79875 29.7317C10.2239 30.3454 11.7352 30.748 13.3002 30.9312C16.3191 34.1059 20.4934 35.7314 24.7641 35.7314C26.9841 35.7314 29.196 35.279 31.1984 34.4191L38.1384 37.9479C38.3064 38.0334 38.4884 38.0752 38.6692 38.0752C39.4601 38.0752 40.027 37.3045 39.786 36.5476L37.5041 29.3831ZM9.27172 27.3737C8.94352 27.2179 8.56172 27.223 8.23789 27.3877L3.29516 29.901L4.90922 24.8333C5.02672 24.4643 4.95445 24.0612 4.71602 23.7561C3.16399 21.7694 2.34359 19.4268 2.34359 16.9814C2.34359 10.5197 8.12594 5.2627 15.2334 5.2627C18.0956 5.2627 20.851 6.12981 23.0861 7.69129C15.5589 8.44816 9.53063 14.3274 9.53063 21.6689C9.53063 23.9524 10.1159 26.1507 11.2195 28.1202C10.5513 27.9212 9.90063 27.6724 9.27172 27.3737ZM31.7596 32.0751C31.4405 31.9129 31.0584 31.9031 30.7258 32.0612C28.8988 32.929 26.8373 33.3877 24.7641 33.3877C17.6566 33.3877 11.8742 28.1307 11.8742 21.6689C11.8742 15.2072 17.6566 9.9502 24.7641 9.9502C31.8716 9.9502 37.6539 15.2072 37.6539 21.6689C37.6539 24.1143 36.8335 26.4569 35.2814 28.4436C35.0431 28.7486 34.9708 29.1518 35.0882 29.5207L36.7023 34.5884L31.7596 32.0751Z" fill="#20262A"/>
<path id="Vector_2" d="M19.9988 22.8408C20.646 22.8408 21.1707 22.3162 21.1707 21.6689C21.1707 21.0217 20.646 20.4971 19.9988 20.4971C19.3516 20.4971 18.8269 21.0217 18.8269 21.6689C18.8269 22.3162 19.3516 22.8408 19.9988 22.8408Z" fill="#20262A"/>
<path id="Vector_3" d="M24.686 22.8408C25.3332 22.8408 25.8579 22.3162 25.8579 21.6689C25.8579 21.0217 25.3332 20.4971 24.686 20.4971C24.0388 20.4971 23.5142 21.0217 23.5142 21.6689C23.5142 22.3162 24.0388 22.8408 24.686 22.8408Z" fill="#20262A"/>
<path id="Vector_4" d="M29.3732 22.8408C30.0204 22.8408 30.545 22.3162 30.545 21.6689C30.545 21.0217 30.0204 20.4971 29.3732 20.4971C28.726 20.4971 28.2013 21.0217 28.2013 21.6689C28.2013 22.3162 28.726 22.8408 29.3732 22.8408Z" fill="#20262A"/>
</g>
<defs>
<clipPath id="clip0_41_9857">
<rect width="40" height="40" fill="white" transform="translate(0 0.49707)"/>
</clipPath>
</defs>
</svg>
