<svg width="68" height="69" viewBox="0 0 68 69" fill="none" xmlns="http://www.w3.org/2000/svg">
<path id="path58" d="M49.7709 9.82093L39.3644 52.214H45.2567C50.7919 52.214 55.6129 48.4254 56.9359 43.0347L67.5 0H62.2668C56.3443 0 51.1866 4.05373 49.7709 9.82093ZM43.7742 26.4909C44.9862 21.5543 41.2601 16.786 36.1907 16.786H30.3947L24.1901 42.0615C22.9225 47.2259 26.8203 52.214 32.1235 52.214H37.4598L43.7742 26.4909ZM5.73341 69H0.5L11.0641 25.9653C12.3874 20.5746 17.2081 16.786 22.7436 16.786H28.6356L18.2291 59.1791C16.8134 64.9463 11.6557 69 5.73341 69Z" fill="#590094"/>
</svg>
