<svg width="18" height="18" viewBox="0 0 18 18" fill="none" xmlns="http://www.w3.org/2000/svg">
<g id="Frame">
<path id="Vector" d="M1.5 1.5L16.5 16.5" stroke="#45494C" stroke-linecap="round" stroke-linejoin="round"/>
<path id="Vector_2" d="M6.26251 2.01736C7.62048 1.48698 9.10359 1.36387 10.5304 1.66309C11.9572 1.96232 13.2659 2.6709 14.2964 3.70217C15.3269 4.73343 16.0345 6.04267 16.3326 7.46973C16.6307 8.89679 16.5064 10.3798 15.975 11.7374" stroke="#45494C" stroke-linecap="round" stroke-linejoin="round"/>
<path id="Vector_3" d="M14.31 14.3099C13.6127 15.0073 12.7849 15.5604 11.8738 15.9378C10.9627 16.3152 9.98617 16.5094 9.00001 16.5094C8.01386 16.5094 7.03735 16.3152 6.12626 15.9378C5.21517 15.5604 4.38733 15.0073 3.69001 14.3099C2.99269 13.6126 2.43955 12.7848 2.06216 11.8737C1.68478 10.9626 1.49054 9.9861 1.49054 8.99994C1.49054 8.01378 1.68478 7.03728 2.06216 6.12619C2.43955 5.2151 2.99269 4.38726 3.69001 3.68994" stroke="#45494C" stroke-linecap="round" stroke-linejoin="round"/>
</g>
</svg>
